<svg width="138" height="46" viewBox="0 0 138 46" fill="none" xmlns="http://www.w3.org/2000/svg">
<g filter="url(#filter0_d_2_29)">
<path d="M4.99237 20C4.99237 8.9543 13.9467 0 24.9924 0H115C125.493 0 134 8.50659 134 19V19C134 29.4934 125.493 38 115 38H4.99237V20Z" fill="#E6B294"/>
<path d="M30.0312 27.7188C29.828 27.7188 29.6601 27.6523 29.5273 27.5195C29.3944 27.3867 29.328 27.2188 29.328 27.0156V15.1328C29.328 14.9297 29.2616 14.7617 29.1288 14.6289C28.996 14.4883 28.828 14.418 28.6249 14.418H25.6132C25.4179 14.418 25.2499 14.3516 25.1093 14.2188C24.9765 14.0781 24.9101 13.9102 24.9101 13.7148V11.793C24.9101 11.5898 24.9765 11.4219 25.1093 11.2891C25.2499 11.1562 25.4179 11.0898 25.6132 11.0898H36.4648C36.6757 11.0898 36.8476 11.1562 36.9804 11.2891C37.1132 11.4219 37.1796 11.5898 37.1796 11.793V13.7148C37.1796 13.9102 37.1132 14.0781 36.9804 14.2188C36.8476 14.3516 36.6757 14.418 36.4648 14.418H33.3593C33.1562 14.418 32.9882 14.4883 32.8554 14.6289C32.7226 14.7617 32.6562 14.9297 32.6562 15.1328V27.0156C32.6562 27.2188 32.5858 27.3867 32.4452 27.5195C32.3124 27.6523 32.1444 27.7188 31.9413 27.7188H30.0312ZM41.9468 27.7188C41.7437 27.7188 41.5718 27.6523 41.4312 27.5195C41.2983 27.3867 41.2319 27.2188 41.2319 27.0156V11.7695C41.2319 11.5664 41.2983 11.3984 41.4312 11.2656C41.5718 11.1328 41.7437 11.0664 41.9468 11.0664H43.7046C43.9077 11.0664 44.0757 11.1328 44.2085 11.2656C44.3413 11.3984 44.4077 11.5664 44.4077 11.7695V15.8359C44.6733 15.5938 45.0093 15.4023 45.4155 15.2617C45.8218 15.1211 46.2827 15.0508 46.7983 15.0508C47.5796 15.0508 48.3023 15.1953 48.9663 15.4844C49.6148 15.7578 50.2007 16.1562 50.7241 16.6797C51.2241 17.1953 51.6187 17.7852 51.9077 18.4492C52.1968 19.1211 52.3413 19.8477 52.3413 20.6289V27.0156C52.3413 27.2188 52.2749 27.3867 52.1421 27.5195C52.0093 27.6523 51.8374 27.7188 51.6265 27.7188H49.8569C49.6538 27.7188 49.4858 27.6523 49.353 27.5195C49.2202 27.3867 49.1538 27.2188 49.1538 27.0156V21.332L49.1655 20.6289H49.1773C49.1773 20.3008 49.1148 19.9883 48.9898 19.6914C48.8569 19.4102 48.6851 19.1641 48.4741 18.9531C48.2554 18.7266 48.0054 18.5508 47.7241 18.4258C47.4507 18.3086 47.1421 18.25 46.7983 18.25C46.4546 18.25 46.1421 18.3086 45.8608 18.4258C45.5718 18.5586 45.3179 18.7344 45.0991 18.9531C44.8804 19.1641 44.7085 19.4102 44.5835 19.6914C44.4663 19.9727 44.4077 20.2852 44.4077 20.6289V27.0156C44.4077 27.2188 44.3413 27.3867 44.2085 27.5195C44.0757 27.6523 43.9077 27.7188 43.7046 27.7188H41.9468ZM56.5577 21.3555C56.5577 20.3789 56.7257 19.4883 57.0616 18.6836C57.3976 17.8711 57.8468 17.1836 58.4093 16.6211C59.003 16.0273 59.6749 15.5742 60.4249 15.2617C61.2218 14.9336 62.0499 14.7773 62.9093 14.793C63.7765 14.8086 64.5968 14.9727 65.3702 15.2852C66.128 15.5977 66.7999 16.0469 67.3858 16.6328C67.9483 17.1953 68.4015 17.8906 68.7452 18.7188C69.089 19.5156 69.2608 20.3945 69.2608 21.3555V27.2266C69.2608 27.4297 69.1944 27.5977 69.0616 27.7305C68.9288 27.8633 68.7608 27.9297 68.5577 27.9297H66.7648C66.5694 27.9297 66.4054 27.8633 66.2726 27.7305C66.1398 27.5977 66.0655 27.3047 66.0499 26.8516V21.3555C66.0499 20.8711 65.9679 20.4219 65.8038 20.0078C65.6398 19.6016 65.4171 19.2461 65.1358 18.9414C64.8546 18.6445 64.5148 18.4102 64.1163 18.2383C63.7257 18.0742 63.3233 17.9883 62.9093 17.9805C62.4874 17.9727 62.0773 18.0586 61.6788 18.2383C61.296 18.418 60.964 18.6523 60.6827 18.9414C60.3858 19.2539 60.1554 19.6094 59.9913 20.0078C59.8194 20.4062 59.7335 20.8555 59.7335 21.3555C59.7335 21.6133 59.7491 21.9648 59.7804 22.4102C59.8194 22.8477 59.8819 23.1719 59.9679 23.3828C60.0538 23.5859 60.2062 23.7969 60.4249 24.0156C60.6124 24.2109 60.8663 24.3789 61.1866 24.5195C61.4991 24.6523 61.8116 24.7188 62.1241 24.7188H63.8233C64.0265 24.7188 64.1944 24.7852 64.3273 24.918C64.4601 25.0508 64.5265 25.2188 64.5265 25.4219V27.168C64.5265 27.3711 64.4601 27.5391 64.3273 27.6719C64.1944 27.8047 64.0265 27.8711 63.8233 27.8711H62.1241C61.3585 27.8711 60.6437 27.7227 59.9796 27.4258C59.3546 27.1445 58.7608 26.7461 58.1983 26.2305C57.6905 25.7617 57.296 25.1758 57.0148 24.4727C56.8663 24.1055 56.753 23.7031 56.6749 23.2656C56.5968 22.8203 56.5577 22.1836 56.5577 21.3555ZM74.1335 27.8125C73.9304 27.8125 73.7585 27.7461 73.6179 27.6133C73.4851 27.4727 73.4187 27.3008 73.4187 27.0977V20.8047C73.4187 20.0625 73.5671 19.3398 73.864 18.6367C74.1608 17.957 74.5593 17.3711 75.0593 16.8789C75.5671 16.3711 76.1569 15.9766 76.8288 15.6953C77.4851 15.4062 78.1999 15.2617 78.9733 15.2617H80.6491C80.8601 15.2617 81.0319 15.332 81.1647 15.4727C81.2976 15.6055 81.364 15.7734 81.364 15.9766V17.7109C81.364 17.9141 81.2976 18.0859 81.1647 18.2266C81.0319 18.3594 80.8601 18.4258 80.6491 18.4258H78.9733C78.6296 18.4258 78.3171 18.4844 78.0358 18.6016C77.739 18.7344 77.489 18.8984 77.2858 19.0938C77.0671 19.3125 76.8952 19.5625 76.7702 19.8438C76.653 20.125 76.5944 20.4453 76.5944 20.8047V27.0977C76.5944 27.3008 76.528 27.4727 76.3952 27.6133C76.2624 27.7461 76.0944 27.8125 75.8913 27.8125H74.1335ZM85.428 16.1055C85.428 15.9023 85.4944 15.7344 85.6273 15.6016C85.7679 15.4688 85.9358 15.4023 86.1312 15.4023H87.9007C88.1038 15.4023 88.2718 15.4688 88.4046 15.6016C88.5374 15.7344 88.6038 15.9023 88.6038 16.1055V22.6211C88.6038 22.9727 88.6624 23.2812 88.7796 23.5469C88.9046 23.8281 89.0765 24.082 89.2952 24.3086C89.5062 24.5195 89.7562 24.6875 90.0452 24.8125C90.3343 24.9375 90.6351 25 90.9476 25H91.1819C91.4944 25 91.7991 24.9375 92.096 24.8125C92.3851 24.6875 92.6351 24.5195 92.846 24.3086C93.0726 24.082 93.2444 23.8281 93.3616 23.5469C93.4788 23.2812 93.5374 22.9727 93.5374 22.6211V16.1055C93.5374 15.9023 93.6038 15.7344 93.7366 15.6016C93.8773 15.4688 94.0452 15.4023 94.2405 15.4023H95.9983C96.2015 15.4023 96.3694 15.4688 96.5023 15.6016C96.6429 15.7344 96.7132 15.9023 96.7132 16.1055V22.3867C96.7132 23.1367 96.5687 23.8594 96.2796 24.5547C95.9749 25.25 95.5765 25.8438 95.0843 26.3359C94.5843 26.8359 93.9944 27.2344 93.3148 27.5312C92.6663 27.8125 91.9554 27.9531 91.1819 27.9531H90.971C90.1976 27.9531 89.4827 27.8125 88.8265 27.5312C88.1468 27.2344 87.5569 26.8359 87.0569 26.3359C86.5648 25.8438 86.1663 25.25 85.8616 24.5547C85.5726 23.8594 85.428 23.1367 85.428 22.3867V16.1055ZM100.883 20.6289C100.883 19.8477 101.027 19.1211 101.316 18.4492C101.598 17.793 101.996 17.2031 102.512 16.6797C103.027 16.1562 103.613 15.7578 104.269 15.4844C104.934 15.1953 105.652 15.0508 106.426 15.0508H106.625C107.398 15.0508 108.113 15.1953 108.769 15.4844C109.426 15.7578 110.016 16.1562 110.539 16.6797C111.039 17.1875 111.434 17.7773 111.723 18.4492C112.012 19.1211 112.156 19.8477 112.156 20.6289V27.0156C112.156 27.2188 112.09 27.3867 111.957 27.5195C111.824 27.6523 111.656 27.7188 111.453 27.7188H109.695C109.492 27.7188 109.324 27.6523 109.191 27.5195C109.059 27.3867 108.992 27.2188 108.992 27.0156V20.3945C108.992 20.0664 108.93 19.7578 108.805 19.4688C108.68 19.1797 108.512 18.9297 108.301 18.7188C108.074 18.4922 107.82 18.3203 107.539 18.2031C107.273 18.0781 106.969 18.0156 106.625 18.0156H106.391C106.078 18.0156 105.781 18.0781 105.5 18.2031C105.203 18.3438 104.949 18.5156 104.738 18.7188C104.527 18.9297 104.359 19.1797 104.234 19.4688C104.109 19.7578 104.047 20.0664 104.047 20.3945V27.0156C104.047 27.2188 103.98 27.3867 103.848 27.5195C103.715 27.6523 103.547 27.7188 103.344 27.7188H101.586C101.383 27.7188 101.215 27.6523 101.082 27.5195C100.949 27.3867 100.883 27.2188 100.883 27.0156V20.6289Z" fill="black"/>
</g>
<defs>
<filter id="filter0_d_2_29" x="0.992371" y="0" width="137.008" height="46" filterUnits="userSpaceOnUse" color-interpolation-filters="sRGB">
<feFlood flood-opacity="0" result="BackgroundImageFix"/>
<feColorMatrix in="SourceAlpha" type="matrix" values="0 0 0 0 0 0 0 0 0 0 0 0 0 0 0 0 0 0 127 0" result="hardAlpha"/>
<feOffset dy="4"/>
<feGaussianBlur stdDeviation="2"/>
<feComposite in2="hardAlpha" operator="out"/>
<feColorMatrix type="matrix" values="0 0 0 0 0 0 0 0 0 0 0 0 0 0 0 0 0 0 0.25 0"/>
<feBlend mode="normal" in2="BackgroundImageFix" result="effect1_dropShadow_2_29"/>
<feBlend mode="normal" in="SourceGraphic" in2="effect1_dropShadow_2_29" result="shape"/>
</filter>
</defs>
</svg>
