<svg width="130" height="38" viewBox="0 0 130 38" fill="none" xmlns="http://www.w3.org/2000/svg">
<path d="M37.8041 14.7194H34.149C33.4711 14.7208 32.8212 14.9931 32.3418 15.4766C31.8624 15.96 31.5925 16.6153 31.591 17.2991V21.2445C31.5909 21.5678 31.655 21.8878 31.7794 22.1857C31.9039 22.4837 32.0862 22.7534 32.3157 22.9792C32.5452 23.205 32.8171 23.3821 33.1156 23.5002C33.414 23.6183 33.7328 23.675 34.0533 23.6669L37.7959 23.5648C38.4739 23.5633 39.1237 23.2911 39.6031 22.8076C40.0826 22.3241 40.3525 21.6688 40.354 20.9851V17.2991C40.3525 16.6168 40.0837 15.9627 39.6061 15.4795C39.1284 14.9962 38.4807 14.723 37.8041 14.7194ZM37.8041 14.7194H34.149C33.4711 14.7208 32.8212 14.9931 32.3418 15.4766C31.8624 15.96 31.5925 16.6153 31.591 17.2991V21.2445C31.5909 21.5678 31.655 21.8878 31.7794 22.1857C31.9039 22.4837 32.0862 22.7534 32.3157 22.9792C32.5452 23.205 32.8171 23.3821 33.1156 23.5002C33.414 23.6183 33.7328 23.675 34.0533 23.6669L37.7959 23.5648C38.4739 23.5633 39.1237 23.2911 39.6031 22.8076C40.0826 22.3241 40.3525 21.6688 40.354 20.9851V17.2991C40.3525 16.6168 40.0837 15.9627 39.6061 15.4795C39.1284 14.9962 38.4807 14.723 37.8041 14.7194ZM37.8041 14.7194H34.149C33.4711 14.7208 32.8212 14.9931 32.3418 15.4766C31.8624 15.96 31.5925 16.6153 31.591 17.2991V21.2445C31.5909 21.5678 31.655 21.8878 31.7794 22.1857C31.9039 22.4837 32.0862 22.7534 32.3157 22.9792C32.5452 23.205 32.8171 23.3821 33.1156 23.5002C33.414 23.6183 33.7328 23.675 34.0533 23.6669L37.7959 23.5648C38.4739 23.5633 39.1237 23.2911 39.6031 22.8076C40.0826 22.3241 40.3525 21.6688 40.354 20.9851V17.2991C40.3525 16.6168 40.0837 15.9627 39.6061 15.4795C39.1284 14.9962 38.4807 14.723 37.8041 14.7194ZM37.8041 14.7194H34.149C33.4711 14.7208 32.8212 14.9931 32.3418 15.4766C31.8624 15.96 31.5925 16.6153 31.591 17.2991V21.2445C31.5909 21.5678 31.655 21.8878 31.7794 22.1857C31.9039 22.4837 32.0862 22.7534 32.3157 22.9792C32.5452 23.205 32.8171 23.3821 33.1156 23.5002C33.414 23.6183 33.7328 23.675 34.0533 23.6669L37.7959 23.5648C38.4739 23.5633 39.1237 23.2911 39.6031 22.8076C40.0826 22.3241 40.3525 21.6688 40.354 20.9851V17.2991C40.3525 16.6168 40.0837 15.9627 39.6061 15.4795C39.1284 14.9962 38.4807 14.723 37.8041 14.7194ZM37.8041 14.7194H34.149C33.4711 14.7208 32.8212 14.9931 32.3418 15.4766C31.8624 15.96 31.5925 16.6153 31.591 17.2991V21.2445C31.5909 21.5678 31.655 21.8878 31.7794 22.1857C31.9039 22.4837 32.0862 22.7534 32.3157 22.9792C32.5452 23.205 32.8171 23.3821 33.1156 23.5002C33.414 23.6183 33.7328 23.675 34.0533 23.6669L37.7959 23.5648C38.4739 23.5633 39.1237 23.2911 39.6031 22.8076C40.0826 22.3241 40.3525 21.6688 40.354 20.9851V17.2991C40.3525 16.6168 40.0837 15.9627 39.6061 15.4795C39.1284 14.9962 38.4807 14.723 37.8041 14.7194ZM37.8041 14.7194H34.149C33.4711 14.7208 32.8212 14.9931 32.3418 15.4766C31.8624 15.96 31.5925 16.6153 31.591 17.2991V21.2445C31.5909 21.5678 31.655 21.8878 31.7794 22.1857C31.9039 22.4837 32.0862 22.7534 32.3157 22.9792C32.5452 23.205 32.8171 23.3821 33.1156 23.5002C33.414 23.6183 33.7328 23.675 34.0533 23.6669L37.7959 23.5648C38.4739 23.5633 39.1237 23.2911 39.6031 22.8076C40.0826 22.3241 40.3525 21.6688 40.354 20.9851V17.2991C40.3525 16.6168 40.0837 15.9627 39.6061 15.4795C39.1284 14.9962 38.4807 14.723 37.8041 14.7194ZM112.22 0H17.7831C7.97778 0 0 8.51986 0 18.9959V36.695C-7.65954e-07 37.0406 0.135962 37.3721 0.378055 37.6168C0.620147 37.8615 0.948595 37.9993 1.29133 38H112.217C122.025 38 130 29.4774 130 19.0041C130 8.53089 122.019 0 112.225 0H112.22ZM26.8607 20.9851C26.86 22.3594 26.3191 23.6773 25.3565 24.6501C24.3939 25.6229 23.0882 26.1712 21.7255 26.1748H18.24C17.8968 26.1748 17.5676 26.0373 17.325 25.7926C17.0823 25.5479 16.9459 25.2159 16.9459 24.8698C16.9459 24.5237 17.0823 24.1918 17.325 23.947C17.5676 23.7023 17.8968 23.5648 18.24 23.5648H21.7255C22.4039 23.5648 23.0546 23.293 23.5343 22.8092C24.014 22.3254 24.2835 21.6693 24.2835 20.9851V17.2991C24.2835 16.6149 24.014 15.9587 23.5343 15.475C23.0546 14.9912 22.4039 14.7194 21.7255 14.7194H18.0731C17.3947 14.7194 16.744 14.9912 16.2643 15.475C15.7846 15.9587 15.5151 16.6149 15.5151 17.2991V30.901H12.927V17.2991C12.927 15.9227 13.4691 14.6026 14.4342 13.6294C15.3993 12.6561 16.7083 12.1093 18.0731 12.1093H21.7255C23.0906 12.1093 24.3998 12.656 25.3653 13.6292C26.3309 14.6024 26.8737 15.9224 26.8744 17.2991L26.8607 20.9851ZM42.9366 20.9851C42.9352 22.3577 42.3952 23.674 41.4345 24.6464C40.4739 25.6188 39.1707 26.1683 37.8096 26.1748L34.1189 26.2769H33.9767C32.6556 26.2733 31.3898 25.7415 30.4569 24.7981C29.524 23.8547 29.0001 22.5768 29.0001 21.2445V17.2991C29.0016 15.9231 29.5442 14.6039 30.509 13.631C31.4738 12.658 32.7819 12.1108 34.1463 12.1093H37.8014C39.1668 12.1093 40.4763 12.6559 41.4422 13.629C42.4082 14.6021 42.9516 15.9222 42.953 17.2991L42.9366 20.9851ZM47.9268 26.1445H45.3387V7.27002H47.9268V26.1445ZM53.0894 26.1445H50.5013V7.27002H53.0894V26.1445ZM69.6633 20.9851C69.6633 22.3615 69.1211 23.6815 68.156 24.6548C67.1909 25.6281 65.882 26.1748 64.5171 26.1748H61.0426C60.6994 26.1748 60.3702 26.0373 60.1275 25.7926C59.8848 25.5479 59.7485 25.2159 59.7485 24.8698C59.7485 24.5237 59.8848 24.1918 60.1275 23.947C60.3702 23.7023 60.6994 23.5648 61.0426 23.5648H64.5308C65.2092 23.5648 65.8599 23.293 66.3396 22.8092C66.8193 22.3254 67.0888 21.6693 67.0888 20.9851V17.2991C67.0888 16.6149 66.8193 15.9587 66.3396 15.475C65.8599 14.9912 65.2092 14.7194 64.5308 14.7194H60.8757C60.1973 14.7194 59.5466 14.9912 59.0669 15.475C58.5872 15.9587 58.3177 16.6149 58.3177 17.2991V30.901H55.7295V17.2991C55.7295 15.9227 56.2717 14.6026 57.2368 13.6294C58.2019 12.6561 59.5108 12.1093 60.8757 12.1093H64.5308C65.8956 12.1093 67.2046 12.6561 68.1697 13.6294C69.1348 14.6026 69.677 15.9227 69.677 17.2991L69.6633 20.9851ZM85.8185 26.1445H83.2304V17.2991C83.2297 16.6146 82.9596 15.9585 82.4794 15.4748C81.9993 14.9911 81.3483 14.7194 80.6696 14.7194H77.031C76.695 14.7194 76.3624 14.7861 76.052 14.9157C75.7417 15.0454 75.4597 15.2354 75.2221 15.475C74.9846 15.7145 74.7962 15.9989 74.6676 16.3119C74.5391 16.6248 74.4729 16.9603 74.4729 17.2991V20.9851C74.4729 21.3239 74.5391 21.6593 74.6676 21.9723C74.7962 22.2853 74.9846 22.5697 75.2221 22.8092C75.4597 23.0488 75.7417 23.2388 76.052 23.3684C76.3624 23.4981 76.695 23.5648 77.031 23.5648H80.5192C80.7753 23.564 81.026 23.64 81.2391 23.7832C81.4523 23.9264 81.6185 24.1304 81.7165 24.369C81.8144 24.6077 81.8398 24.8704 81.7893 25.1237C81.7388 25.3769 81.6148 25.6094 81.433 25.7913C81.3136 25.9133 81.1713 26.0101 81.0144 26.0759C80.8575 26.1418 80.6891 26.1754 80.5192 26.1748H77.031C75.6661 26.1748 74.3572 25.6281 73.3921 24.6548C72.427 23.6815 71.8848 22.3615 71.8848 20.9851V17.2991C71.8848 15.9227 72.427 14.6026 73.3921 13.6294C74.3572 12.6561 75.6661 12.1093 77.031 12.1093H80.6833C82.0484 12.1093 83.3576 12.656 84.3232 13.6292C85.2887 14.6024 85.8315 15.9224 85.8322 17.2991L85.8185 26.1445ZM102.234 20.9851C102.233 22.3618 101.69 23.6818 100.725 24.655C99.7591 25.6282 98.4499 26.1748 97.0848 26.1748H93.6021C93.2589 26.1748 92.9297 26.0373 92.687 25.7926C92.4443 25.5479 92.308 25.2159 92.308 24.8698C92.308 24.5237 92.4443 24.1918 92.687 23.947C92.9297 23.7023 93.2589 23.5648 93.6021 23.5648H97.0876C97.7662 23.5648 98.4172 23.2931 98.8973 22.8094C99.3775 22.3257 99.6476 21.6695 99.6483 20.9851V17.2991C99.6476 16.6146 99.3775 15.9585 98.8973 15.4748C98.4172 14.9911 97.7662 14.7194 97.0876 14.7194H93.4352C92.7568 14.7194 92.1061 14.9912 91.6264 15.475C91.1467 15.9587 90.8772 16.6149 90.8772 17.2991V30.901H88.289V17.2991C88.289 15.9227 88.8312 14.6026 89.7963 13.6294C90.7614 12.6561 92.0703 12.1093 93.4352 12.1093H97.0876C98.4527 12.1093 99.7619 12.656 100.727 13.6292C101.693 14.6024 102.236 15.9224 102.236 17.2991L102.234 20.9851ZM118.375 26.1445H115.787V17.2991C115.787 16.6149 115.518 15.9587 115.038 15.475C114.558 14.9912 113.908 14.7194 113.229 14.7194H109.59C108.912 14.7194 108.261 14.9912 107.782 15.475C107.302 15.9587 107.032 16.6149 107.032 17.2991V20.9851C107.032 21.6693 107.302 22.3254 107.782 22.8092C108.261 23.293 108.912 23.5648 109.59 23.5648H113.079C113.335 23.564 113.585 23.64 113.799 23.7832C114.012 23.9264 114.178 24.1304 114.276 24.369C114.374 24.6077 114.399 24.8704 114.349 25.1237C114.298 25.3769 114.174 25.6094 113.992 25.7913C113.873 25.9133 113.731 26.0101 113.574 26.0759C113.417 26.1418 113.249 26.1754 113.079 26.1748H109.59C108.226 26.1748 106.917 25.6281 105.952 24.6548C104.986 23.6815 104.444 22.3615 104.444 20.9851V17.2991C104.444 15.9227 104.986 14.6026 105.952 13.6294C106.917 12.6561 108.226 12.1093 109.59 12.1093H113.243C114.608 12.1093 115.917 12.6561 116.882 13.6294C117.847 14.6026 118.389 15.9227 118.389 17.2991L118.375 26.1445ZM37.8041 14.7194H34.149C33.4711 14.7208 32.8212 14.9931 32.3418 15.4766C31.8624 15.96 31.5925 16.6153 31.591 17.2991V21.2445C31.5909 21.5678 31.655 21.8878 31.7794 22.1857C31.9039 22.4837 32.0862 22.7534 32.3157 22.9792C32.5452 23.205 32.8171 23.3821 33.1156 23.5002C33.414 23.6183 33.7328 23.675 34.0533 23.6669L37.7959 23.5648C38.4739 23.5633 39.1237 23.2911 39.6031 22.8076C40.0826 22.3241 40.3525 21.6688 40.354 20.9851V17.2991C40.3525 16.6168 40.0837 15.9627 39.6061 15.4795C39.1284 14.9962 38.4807 14.723 37.8041 14.7194ZM37.8041 14.7194H34.149C33.4711 14.7208 32.8212 14.9931 32.3418 15.4766C31.8624 15.96 31.5925 16.6153 31.591 17.2991V21.2445C31.5909 21.5678 31.655 21.8878 31.7794 22.1857C31.9039 22.4837 32.0862 22.7534 32.3157 22.9792C32.5452 23.205 32.8171 23.3821 33.1156 23.5002C33.414 23.6183 33.7328 23.675 34.0533 23.6669L37.7959 23.5648C38.4739 23.5633 39.1237 23.2911 39.6031 22.8076C40.0826 22.3241 40.3525 21.6688 40.354 20.9851V17.2991C40.3525 16.6168 40.0837 15.9627 39.6061 15.4795C39.1284 14.9962 38.4807 14.723 37.8041 14.7194ZM37.8041 14.7194H34.149C33.4711 14.7208 32.8212 14.9931 32.3418 15.4766C31.8624 15.96 31.5925 16.6153 31.591 17.2991V21.2445C31.5909 21.5678 31.655 21.8878 31.7794 22.1857C31.9039 22.4837 32.0862 22.7534 32.3157 22.9792C32.5452 23.205 32.8171 23.3821 33.1156 23.5002C33.414 23.6183 33.7328 23.675 34.0533 23.6669L37.7959 23.5648C38.4739 23.5633 39.1237 23.2911 39.6031 22.8076C40.0826 22.3241 40.3525 21.6688 40.354 20.9851V17.2991C40.3525 16.6168 40.0837 15.9627 39.6061 15.4795C39.1284 14.9962 38.4807 14.723 37.8041 14.7194ZM37.8041 14.7194H34.149C33.4711 14.7208 32.8212 14.9931 32.3418 15.4766C31.8624 15.96 31.5925 16.6153 31.591 17.2991V21.2445C31.5909 21.5678 31.655 21.8878 31.7794 22.1857C31.9039 22.4837 32.0862 22.7534 32.3157 22.9792C32.5452 23.205 32.8171 23.3821 33.1156 23.5002C33.414 23.6183 33.7328 23.675 34.0533 23.6669L37.7959 23.5648C38.4739 23.5633 39.1237 23.2911 39.6031 22.8076C40.0826 22.3241 40.3525 21.6688 40.354 20.9851V17.2991C40.3525 16.6168 40.0837 15.9627 39.6061 15.4795C39.1284 14.9962 38.4807 14.723 37.8041 14.7194ZM37.8041 14.7194H34.149C33.4711 14.7208 32.8212 14.9931 32.3418 15.4766C31.8624 15.96 31.5925 16.6153 31.591 17.2991V21.2445C31.5909 21.5678 31.655 21.8878 31.7794 22.1857C31.9039 22.4837 32.0862 22.7534 32.3157 22.9792C32.5452 23.205 32.8171 23.3821 33.1156 23.5002C33.414 23.6183 33.7328 23.675 34.0533 23.6669L37.7959 23.5648C38.4739 23.5633 39.1237 23.2911 39.6031 22.8076C40.0826 22.3241 40.3525 21.6688 40.354 20.9851V17.2991C40.3525 16.6168 40.0837 15.9627 39.6061 15.4795C39.1284 14.9962 38.4807 14.723 37.8041 14.7194ZM37.8041 14.7194H34.149C33.4711 14.7208 32.8212 14.9931 32.3418 15.4766C31.8624 15.96 31.5925 16.6153 31.591 17.2991V21.2445C31.5909 21.5678 31.655 21.8878 31.7794 22.1857C31.9039 22.4837 32.0862 22.7534 32.3157 22.9792C32.5452 23.205 32.8171 23.3821 33.1156 23.5002C33.414 23.6183 33.7328 23.675 34.0533 23.6669L37.7959 23.5648C38.4739 23.5633 39.1237 23.2911 39.6031 22.8076C40.0826 22.3241 40.3525 21.6688 40.354 20.9851V17.2991C40.3525 16.6168 40.0837 15.9627 39.6061 15.4795C39.1284 14.9962 38.4807 14.723 37.8041 14.7194ZM37.8041 14.7194H34.149C33.4711 14.7208 32.8212 14.9931 32.3418 15.4766C31.8624 15.96 31.5925 16.6153 31.591 17.2991V21.2445C31.5909 21.5678 31.655 21.8878 31.7794 22.1857C31.9039 22.4837 32.0862 22.7534 32.3157 22.9792C32.5452 23.205 32.8171 23.3821 33.1156 23.5002C33.414 23.6183 33.7328 23.675 34.0533 23.6669L37.7959 23.5648C38.4739 23.5633 39.1237 23.2911 39.6031 22.8076C40.0826 22.3241 40.3525 21.6688 40.354 20.9851V17.2991C40.3525 16.6168 40.0837 15.9627 39.6061 15.4795C39.1284 14.9962 38.4807 14.723 37.8041 14.7194Z" fill="#EFB08F"/>
</svg>
